<?xml version="1.0" encoding="UTF-8"?>
<svg version="1.1" xmlns="http://www.w3.org/2000/svg" width="297" height="411">
<path d="M0 0 C2.475 0.495 2.475 0.495 5 1 C5.33 2.32 5.66 3.64 6 5 C8.97 5.495 8.97 5.495 12 6 C12 6.66 12 7.32 12 8 C13.65 8.33 15.3 8.66 17 9 C17 9.66 17 10.32 17 11 C17.99 11.33 18.98 11.66 20 12 C20 12.99 20 13.98 20 15 C22.475 15.495 22.475 15.495 25 16 C25 17.32 25 18.64 25 20 C26.43344 20.53190541 27.87195367 21.05015258 29.3125 21.5625 C30.11300781 21.85253906 30.91351563 22.14257812 31.73828125 22.44140625 C34.1433174 23.24915625 34.1433174 23.24915625 37 22 C37 23.98 37 25.96 37 28 C39.31 28 41.62 28 44 28 C44.495 32.455 44.495 32.455 45 37 C45.66 37 46.32 37 47 37 C47.495 39.97 47.495 39.97 48 43 C48.66 42.01 49.32 41.02 50 40 C51.65 40.33 53.3 40.66 55 41 C55.495 44.465 55.495 44.465 56 48 C56.66 48 57.32 48 58 48 C58.495 50.97 58.495 50.97 59 54 C59.66 54 60.32 54 61 54 C61.33 52.68 61.66 51.36 62 50 C63.65 50.33 65.3 50.66 67 51 C67.50512244 52.60256108 68.00391627 54.20711792 68.5 55.8125 C68.7784375 56.70582031 69.056875 57.59914062 69.34375 58.51953125 C70 61 70 61 70 64 C70.66 64 71.32 64 72 64 C72 63.34 72 62.68 72 62 C73.32 62.66 74.64 63.32 76 64 C76 64.99 76 65.98 76 67 C76.66 67 77.32 67 78 67 C78.33 67.99 78.66 68.98 79 70 C79.495 68.515 79.495 68.515 80 67 C83.3 67.33 86.6 67.66 90 68 C90 68.66 90 69.32 90 70 C90.66 70 91.32 70 92 70 C92 70.99 92 71.98 92 73 C92.66 73 93.32 73 94 73 C96.3283935 74.76957906 96.95288806 75.81583516 97.6875 78.6875 C97.790625 79.450625 97.89375 80.21375 98 81 C99.485 81.495 99.485 81.495 101 82 C101 82.66 101 83.32 101 84 C101.99 84 102.98 84 104 84 C104 84.66 104 85.32 104 86 C105.98 86.495 105.98 86.495 108 87 C108 87.66 108 88.32 108 89 C109.051875 89.185625 109.051875 89.185625 110.125 89.375 C113.17902201 90.03891783 116.04306038 90.99338226 119 92 C120.32911682 92.34976758 121.66082739 92.69096017 123 93 C123 93.66 123 94.32 123 95 C124.98 95 126.96 95 129 95 C129 95.99 129 96.98 129 98 C129.66 98 130.32 98 131 98 C132.625 99.3125 132.625 99.3125 134 101 C134 101.99 134 102.98 134 104 C134.66 104 135.32 104 136 104 C136.33 105.65 136.66 107.3 137 109 C137.99 109.33 138.98 109.66 140 110 C140 110.66 140 111.32 140 112 C140.66 112 141.32 112 142 112 C142.33 113.65 142.66 115.3 143 117 C143.99 117.33 144.98 117.66 146 118 C146 118.99 146 119.98 146 121 C146.66 121 147.32 121 148 121 C148 121.66 148 122.32 148 123 C148.99 123.33 149.98 123.66 151 124 C154 128.33333333 154 128.33333333 154 131 C154.99 131.33 155.98 131.66 157 132 C157 132.66 157 133.32 157 134 C157.66 134 158.32 134 159 134 C159.33 135.32 159.66 136.64 160 138 C160.66 138 161.32 138 162 138 C162 138.66 162 139.32 162 140 C162.66 140 163.32 140 164 140 C165.625 141.3125 165.625 141.3125 167 143 C167 143.99 167 144.98 167 146 C167.99 146.33 168.98 146.66 170 147 C170.2165625 147.9590625 170.2165625 147.9590625 170.4375 148.9375 C170.623125 149.618125 170.80875 150.29875 171 151 C172.31647119 151.69937532 173.65022151 152.36729133 175 153 C175.33 153.99 175.66 154.98 176 156 C176.99 156.33 177.98 156.66 179 157 C179.04898438 157.85722656 179.09796875 158.71445313 179.1484375 159.59765625 C179.26058594 161.31275391 179.26058594 161.31275391 179.375 163.0625 C179.44460937 164.18785156 179.51421875 165.31320313 179.5859375 166.47265625 C180.02027581 170.17272695 180.90400737 173.44296978 182 177 C182.31839844 178.17820313 182.63679687 179.35640625 182.96484375 180.5703125 C183.28582031 181.74335938 183.60679687 182.91640625 183.9375 184.125 C184.25589844 185.30320313 184.57429687 186.48140625 184.90234375 187.6953125 C185.94471965 190.83356876 187.28208842 193.19905721 189 196 C189.66015625 198.2109375 189.66015625 198.2109375 190.0625 200.375 C190.57684491 203.0691876 191.18171616 205.56757507 192.02075195 208.18823242 C193.03203049 212.12468013 193.22896487 215.4097332 193.1953125 219.46484375 C193.1924826 220.14301651 193.18965271 220.82118927 193.18673706 221.51991272 C193.17565416 223.65929766 193.1505736 225.7982443 193.125 227.9375 C193.11495476 229.39908244 193.10583163 230.86067153 193.09765625 232.32226562 C193.07575425 235.88164979 193.04130866 239.44078203 193 243 C193.66 243 194.32 243 195 243 C195 243.99 195 244.98 195 246 C194.34 246 193.68 246 193 246 C192.67 247.65 192.34 249.3 192 251 C191.34 251 190.68 251 190 251 C189.87625 251.7425 189.7525 252.485 189.625 253.25 C189.03879534 255.82930049 188.36715445 257.7482162 187 260 C186.34 260.33 185.68 260.66 185 261 C184.34786708 263.02463255 184.34786708 263.02463255 184 265 C183.34 265 182.68 265 182 265 C181.67 266.32 181.34 267.64 181 269 C180.34 269 179.68 269 179 269 C178.71125 269.5775 178.4225 270.155 178.125 270.75 C177.75375 271.4925 177.3825 272.235 177 273 C176.72986084 273.67579102 176.45972168 274.35158203 176.18139648 275.04785156 C174.68470669 277.52099304 173.73149134 277.76651955 170.97265625 278.484375 C170.18052734 278.69707031 169.38839844 278.90976562 168.57226562 279.12890625 C167.74404297 279.33386719 166.91582031 279.53882813 166.0625 279.75 C165.23814453 279.97042969 164.41378906 280.19085938 163.56445312 280.41796875 C160.26044876 281.28221684 157.43139325 282 154 282 C153.67 284.31 153.34 286.62 153 289 C152.34 289 151.68 289 151 289 C150.67 290.65 150.34 292.3 150 294 C149.34 294 148.68 294 148 294 C148 294.66 148 295.32 148 296 C147.34 296 146.68 296 146 296 C145.67 297.32 145.34 298.64 145 300 C144.34 300 143.68 300 143 300 C142.67 300.99 142.34 301.98 142 303 C141.34 303 140.68 303 140 303 C140 303.66 140 304.32 140 305 C139.01 305 138.02 305 137 305 C136.67 305.99 136.34 306.98 136 308 C134.68 308 133.36 308 132 308 C132 308.66 132 309.32 132 310 C128.04 310 124.08 310 120 310 C118.63047327 307.26094655 118.87378639 305.02912668 119 302 C119.33 301.34 119.66 300.68 120 300 C122.64860427 299.40644386 125.29197322 299.25790731 128 299 C128 298.34 128 297.68 128 297 C129.65 296.67 131.3 296.34 133 296 C133.33 295.01 133.66 294.02 134 293 C134.66 293 135.32 293 136 293 C136.33 292.01 136.66 291.02 137 290 C137.66 290 138.32 290 139 290 C139.33 288.35 139.66 286.7 140 285 C137.36 285.33 134.72 285.66 132 286 C132 286.66 132 287.32 132 288 C130.68 288 129.36 288 128 288 C128 287.34 128 286.68 128 286 C126.989375 286.185625 125.97875 286.37125 124.9375 286.5625 C121.02085773 286.99768247 117.85755337 286.70853021 114 286 C114 286.66 114 287.32 114 288 C111.36 288 108.72 288 106 288 C106 287.01 106 286.02 106 285 C104.35 285 102.7 285 101 285 C101 285.99 101 286.98 101 288 C97.37 287.34 93.74 286.68 90 286 C90 286.66 90 287.32 90 288 C89.01 288 88.02 288 87 288 C87 287.34 87 286.68 87 286 C86.01 286 85.02 286 84 286 C84 284.02 84 282.04 84 280 C82.02 280 80.04 280 78 280 C78 279.01 78 278.02 78 277 C76.02 277 74.04 277 72 277 C72 276.34 72 275.68 72 275 C71.34 275 70.68 275 70 275 C70 274.01 70 273.02 70 272 C67.03 272 64.06 272 61 272 C61 270.68 61 269.36 61 268 C61.99 268 62.98 268 64 268 C64 267.34 64 266.68 64 266 C62.35 265.67 60.7 265.34 59 265 C59 263.68 59 262.36 59 261 C58.01 260.67 57.02 260.34 56 260 C56 259.34 56 258.68 56 258 C54.02 257.67 52.04 257.34 50 257 C50 255.35 50 253.7 50 252 C49.38125 251.690625 48.7625 251.38125 48.125 251.0625 C46.75 250.375 45.375 249.6875 44 249 C44 246.66666667 44 244.33333333 44 242 C43.01 241.34 42.02 240.68 41 240 C41 239.34 41 238.68 41 238 C40.01 238 39.02 238 38 238 C38 235.36 38 232.72 38 230 C36.35 229.67 34.7 229.34 33 229 C32.63076923 224.44615385 32.63076923 224.44615385 34.5 222.1875 C34.995 221.795625 35.49 221.40375 36 221 C35.34 221 34.68 221 34 221 C31.58976204 219.25629698 31.04862715 218.25649894 30.48828125 215.30078125 C30.43027344 214.31464844 30.37226562 213.32851563 30.3125 212.3125 C30.24675781 211.31863281 30.18101563 210.32476562 30.11328125 209.30078125 C30.07589844 208.54152344 30.03851563 207.78226563 30 207 C29.34 207 28.68 207 28 207 C27.67 205.02 27.34 203.04 27 201 C26.34 201 25.68 201 25 201 C25 200.01 25 199.02 25 198 C25.66 198 26.32 198 27 198 C27 197.34 27 196.68 27 196 C29.16874252 196.50603992 30.99967627 196.99983813 33 198 C33 195.69 33 193.38 33 191 C32.34 191 31.68 191 31 191 C30.67 188.36 30.34 185.72 30 183 C29.34 183 28.68 183 28 183 C27.67 181.02 27.34 179.04 27 177 C26.34 177 25.68 177 25 177 C25 175.68 25 174.36 25 173 C26.65 173 28.3 173 30 173 C30 167.72 30 162.44 30 157 C29.01 157 28.02 157 27 157 C27 156.01 27 155.02 27 154 C27.66 154 28.32 154 29 154 C29.33 153.34 29.66 152.68 30 152 C29.34 152 28.68 152 28 152 C27.67 150.02 27.34 148.04 27 146 C28.32 145.67 29.64 145.34 31 145 C30.67 142.36 30.34 139.72 30 137 C29.34 137 28.68 137 28 137 C28 135.35 28 133.7 28 132 C28.66 132 29.32 132 30 132 C30 131.01 30 130.02 30 129 C29.34 129 28.68 129 28 129 C27.67 126.03 27.34 123.06 27 120 C27.99 120 28.98 120 30 120 C30 118.68 30 117.36 30 116 C29.34 116 28.68 116 28 116 C28 115.34 28 114.68 28 114 C29.98 113.505 29.98 113.505 32 113 C31.34 112.401875 30.68 111.80375 30 111.1875 C28 109 28 109 28 106 C28.66 106 29.32 106 30 106 C30 104.68 30 103.36 30 102 C29.01 102 28.02 102 27 102 C27.185625 101.071875 27.37125 100.14375 27.5625 99.1875 C28.24123881 95.98656229 28.24123881 95.98656229 27 93 C26.34 92.67 25.68 92.34 25 92 C25 91.01 25 90.02 25 89 C25.66 89 26.32 89 27 89 C27 88.34 27 87.68 27 87 C27.99 87 28.98 87 30 87 C30 86.34 30 85.68 30 85 C28.515 84.505 28.515 84.505 27 84 C27 81.36 27 78.72 27 76 C26.34 76 25.68 76 25 76 C24.505 70.06 24.505 70.06 24 64 C22.515 63.505 22.515 63.505 21 63 C21.33 60.03 21.66 57.06 22 54 C21.34 54 20.68 54 20 54 C19.67 53.01 19.34 52.02 19 51 C18.484375 50.484375 17.96875 49.96875 17.4375 49.4375 C16.963125 48.963125 16.48875 48.48875 16 48 C16 47.34 16 46.68 16 46 C15.01 45.67 14.02 45.34 13 45 C13 42.36 13 39.72 13 37 C12.34 37 11.68 37 11 37 C10 31.25 10 31.25 10 29 C9.34 29 8.68 29 8 29 C8 27.02 8 25.04 8 23 C7.01 22.67 6.02 22.34 5 22 C5 19.36 5 16.72 5 14 C3.35 13.67 1.7 13.34 0 13 C0.66 11.35 1.32 9.7 2 8 C1.34 8 0.68 8 0 8 C0 5.36 0 2.72 0 0 Z M79 90 C80 92 80 92 80 92 Z M104 106 C105 109 105 109 105 109 Z M95 114 C97.475 114.495 97.475 114.495 100 115 C100.33 115.99 100.66 116.98 101 118 C101.99 117.67 102.98 117.34 104 117 C103.67 116.34 103.34 115.68 103 115 C102.34 115 101.68 115 101 115 C100.67 114.01 100.34 113.02 100 112 C97.67642489 111.81509993 97.67642489 111.81509993 95 114 Z M106 113 C106 113.66 106 114.32 106 115 C106.66 115 107.32 115 108 115 C108 114.34 108 113.68 108 113 C107.34 113 106.68 113 106 113 Z M104 118 C104 118.66 104 119.32 104 120 C106.46326712 121.6446674 106.46326712 121.6446674 109 123 C109 121.35 109 119.7 109 118 C107.35 118 105.7 118 104 118 Z M118 134 C119 137 119 137 119 137 Z M146 151 C146 152.98 146 154.96 146 157 C146.33 157 146.66 157 147 157 C147 155.02 147 153.04 147 151 C146.67 151 146.34 151 146 151 Z M101 154 C101 154.66 101 155.32 101 156 C101.66 156 102.32 156 103 156 C103 155.34 103 154.68 103 154 C102.34 154 101.68 154 101 154 Z M132 154 C133 156 133 156 133 156 Z M118 160 C118.66 160.66 119.32 161.32 120 162 C120 161.34 120 160.68 120 160 C119.34 160 118.68 160 118 160 Z M136 160 C137 162 137 162 137 162 Z M132 168 C133 170 133 170 133 170 Z M146 179 C147 182 147 182 147 182 Z M151 194 C150.73747375 198.33168317 151.70756464 201.8803623 153 206 C153.99 205.67 154.98 205.34 156 205 C154.7874262 201.27566618 153.49140021 197.62197194 152 194 C151.67 194 151.34 194 151 194 Z M99 208 C103 209 103 209 103 209 Z M153 208 C153.33 216.91 153.66 225.82 154 235 C154.66 235 155.32 235 156 235 C155.85915204 236.79206547 155.71216299 238.58364917 155.5625 240.375 C155.48128906 241.37273437 155.40007812 242.37046875 155.31640625 243.3984375 C155 246 155 246 154 248 C154.66 248 155.32 248 156 248 C156 248.99 156 249.98 156 251 C156.99 250.505 156.99 250.505 158 250 C158 249.44538086 158 248.89076172 158 248.31933594 C158 241.21289062 158 234.10644531 158 227 C157.87040175 224.68653336 157.7228522 222.37403862 157.5625 220.0625 C157.44068359 218.25458984 157.44068359 218.25458984 157.31640625 216.41015625 C157.04937075 213.53210697 156.63571398 210.81530476 156 208 C155.01 208 154.02 208 153 208 Z M132 221 C132 221.66 132 222.32 132 223 C133.32 222.67 134.64 222.34 136 222 C134.68 221.67 133.36 221.34 132 221 Z M170 230 C171 232 171 232 171 232 Z M168 236 C168 236.66 168 237.32 168 238 C168.66 238 169.32 238 170 238 C170 237.34 170 236.68 170 236 C169.34 236 168.68 236 168 236 Z M154 252 C153.67 254.97 153.34 257.94 153 261 C152.34 261 151.68 261 151 261 C151 262.65 151 264.3 151 266 C151.66 266 152.32 266 153 266 C153.33 264.02 153.66 262.04 154 260 C154.66 260 155.32 260 156 260 C156.33 257.69 156.66 255.38 157 253 C156.01 252.67 155.02 252.34 154 252 Z " fill="#040404" transform="translate(49,68)"/>
<path d="M0 0 C1.32 0 2.64 0 4 0 C3.67 1.98 3.34 3.96 3 6 C4.32 5.01 5.64 4.02 7 3 C7.99 4.485 7.99 4.485 9 6 C9.33 5.01 9.66 4.02 10 3 C10.66 3 11.32 3 12 3 C12 2.01 12 1.02 12 0 C12.66 0 13.32 0 14 0 C13.67 1.98 13.34 3.96 13 6 C12.34 6 11.68 6 11 6 C10.67 7.65 10.34 9.3 10 11 C9.34 11 8.68 11 8 11 C8 11.66 8 12.32 8 13 C7.34 13 6.68 13 6 13 C5.67 14.32 5.34 15.64 5 17 C4.34 17 3.68 17 3 17 C2.67 17.99 2.34 18.98 2 20 C1.34 20 0.68 20 0 20 C0 20.66 0 21.32 0 22 C-0.99 22 -1.98 22 -3 22 C-3.33 22.99 -3.66 23.98 -4 25 C-5.32 25 -6.64 25 -8 25 C-8 25.66 -8 26.32 -8 27 C-11.96 27 -15.92 27 -20 27 C-21.36952673 24.26094655 -21.12621361 22.02912668 -21 19 C-20.67 18.34 -20.34 17.68 -20 17 C-17.35139573 16.40644386 -14.70802678 16.25790731 -12 16 C-12 15.34 -12 14.68 -12 14 C-10.35 13.67 -8.7 13.34 -7 13 C-6.67 12.01 -6.34 11.02 -6 10 C-5.34 10 -4.68 10 -4 10 C-3.67 9.01 -3.34 8.02 -3 7 C-2.34 7 -1.68 7 -1 7 C-0.67 4.69 -0.34 2.38 0 0 Z " fill="#111111" transform="translate(189,351)"/>
<path d="M0 0 C0.66 0 1.32 0 2 0 C3.515625 1.7578125 3.515625 1.7578125 5.25 4.125 C9.69029647 9.97487098 9.69029647 9.97487098 15 15 C18.05636102 14.67117848 18.05636102 14.67117848 21 14 C24.19986705 15.84881208 25.66136126 17.07438744 26.9375 20.5625 C27 23 27 23 25 26 C25.66 26 26.32 26 27 26 C28.625 27.375 28.625 27.375 30 29 C30 29.66 30 30.32 30 31 C30.99 31.33 31.98 31.66 33 32 C33.6875 34.0625 33.6875 34.0625 34 36 C34.66 36 35.32 36 36 36 C36.495 37.98 36.495 37.98 37 40 C38.32 40 39.64 40 41 40 C42.125 43.75 42.125 43.75 41 46 C41.556875 46.061875 42.11375 46.12375 42.6875 46.1875 C46.00086472 47.35165517 47.70475296 49.39458444 50 52 C50.33 52.99 50.66 53.98 51 55 C51.99 55.33 52.98 55.66 54 56 C54 56.66 54 57.32 54 58 C54.969375 58.2475 55.93875 58.495 56.9375 58.75 C60 60 60 60 60.9375 61.9375 C61 64 61 64 60 67 C57.525 67.495 57.525 67.495 55 68 C55 67.34 55 66.68 55 66 C52.03 65.505 52.03 65.505 49 65 C49 64.34 49 63.68 49 63 C46.69 62.67 44.38 62.34 42 62 C42 61.34 42 60.68 42 60 C41.01 60 40.02 60 39 60 C39 59.34 39 58.68 39 58 C37.68 57.67 36.36 57.34 35 57 C35 56.67 35 56.34 35 56 C36.65 56 38.3 56 40 56 C40 56.66 40 57.32 40 58 C40.99 58 41.98 58 43 58 C43 58.66 43 59.32 43 60 C44.1446875 59.7215625 44.1446875 59.7215625 45.3125 59.4375 C48 59 48 59 51 60 C50.73323796 58.01508358 50.73323796 58.01508358 50 56 C49.01 55.67 48.02 55.34 47 55 C47 54.34 47 53.68 47 53 C46.34 53 45.68 53 45 53 C43.375 51.625 43.375 51.625 42 50 C42 49.34 42 48.68 42 48 C41.01 47.67 40.02 47.34 39 47 C37.8125 44.9375 37.8125 44.9375 37 43 C36.01 43.33 35.02 43.66 34 44 C34 43.34 34 42.68 34 42 C34.66 42 35.32 42 36 42 C35.73323796 40.01508358 35.73323796 40.01508358 35 38 C34.01 37.67 33.02 37.34 32 37 C32 36.34 32 35.68 32 35 C30.515 34.505 30.515 34.505 29 34 C29 33.34 29 32.68 29 32 C27.68 31.67 26.36 31.34 25 31 C25 30.34 25 29.68 25 29 C24.01 28.67 23.02 28.34 22 28 C22 27.34 22 26.68 22 26 C21.01 25.67 20.02 25.34 19 25 C17.98308736 23.00854609 16.98357352 21.00812926 16 19 C15.01 18.34 14.02 17.68 13 17 C13 16.34 13 15.68 13 15 C12.38125 14.9175 11.7625 14.835 11.125 14.75 C9 14 9 14 7.875 12 C7.58625 11.34 7.2975 10.68 7 10 C6.34 9.67 5.68 9.34 5 9 C5 8.34 5 7.68 5 7 C4.34 7 3.68 7 3 7 C2.67 5.68 2.34 4.36 2 3 C1.34 3 0.68 3 0 3 C0 2.01 0 1.02 0 0 Z " fill="#424242" transform="translate(87,114)"/>
<path d="M0 0 C0.33 0 0.66 0 1 0 C1.05865035 3.18742115 1.09381259 6.37470118 1.125 9.5625 C1.14175781 10.45775391 1.15851563 11.35300781 1.17578125 12.27539062 C1.21479596 17.60089905 0.75475782 21.96370689 -1 27 C-2.9375 26.6875 -2.9375 26.6875 -5 26 C-5.33 25.01 -5.66 24.02 -6 23 C-9.50294871 21.28432339 -9.50294871 21.28432339 -13 20 C-13 19.34 -13 18.68 -13 18 C-14.32 17.67 -15.64 17.34 -17 17 C-17 16.34 -17 15.68 -17 15 C-17.763125 14.87625 -18.52625 14.7525 -19.3125 14.625 C-22 14 -22 14 -25 12 C-25 11.34 -25 10.68 -25 10 C-25.99 10 -26.98 10 -28 10 C-27.67 8.68 -27.34 7.36 -27 6 C-26.34 6 -25.68 6 -25 6 C-25 6.66 -25 7.32 -25 8 C-23.35 8.33 -21.7 8.66 -20 9 C-20 9.66 -20 10.32 -20 11 C-18.68 11.33 -17.36 11.66 -16 12 C-15.67 13.32 -15.34 14.64 -15 16 C-13.68 15.67 -12.36 15.34 -11 15 C-11 15.66 -11 16.32 -11 17 C-9.68 17.33 -8.36 17.66 -7 18 C-7 17.01 -7 16.02 -7 15 C-7.66 15 -8.32 15 -9 15 C-9.66 12.36 -10.32 9.72 -11 7 C-11.66 7 -12.32 7 -13 7 C-13 6.01 -13 5.02 -13 4 C-13.66 4 -14.32 4 -15 4 C-15 3.34 -15 2.68 -15 2 C-13.02 2.66 -11.04 3.32 -9 4 C-8.896875 4.763125 -8.79375 5.52625 -8.6875 6.3125 C-7.93793468 9.242619 -7.11401167 9.97790188 -5 12 C-5 12.99 -5 13.98 -5 15 C-4.34 15 -3.68 15 -3 15 C-3.33 16.32 -3.66 17.64 -4 19 C-3.01 19 -2.02 19 -1 19 C-1.01160156 17.87980469 -1.02320313 16.75960937 -1.03515625 15.60546875 C-1.04453622 14.13281417 -1.0536362 12.66015778 -1.0625 11.1875 C-1.07087891 10.44951172 -1.07925781 9.71152344 -1.08789062 8.95117188 C-1.10259828 5.70077932 -1.03531702 3.10595105 0 0 Z " fill="#5B5B5B" transform="translate(196,222)"/>
<path d="M0 0 C3.1875 0.3125 3.1875 0.3125 6 1 C5.25 7.625 5.25 7.625 3 11 C1.68 11 0.36 11 -1 11 C-1 11.66 -1 12.32 -1 13 C-4.96 13 -8.92 13 -13 13 C-14.36952673 10.26094655 -14.12621361 8.02912668 -14 5 C-13.67 4.34 -13.34 3.68 -13 3 C-11.96939453 3.05220703 -11.96939453 3.05220703 -10.91796875 3.10546875 C-10.01691406 3.13253906 -9.11585938 3.15960938 -8.1875 3.1875 C-7.29417969 3.22230469 -6.40085938 3.25710938 -5.48046875 3.29296875 C-2.51490756 2.94270562 -1.97452533 2.10915205 0 0 Z " fill="#060606" transform="translate(182,365)"/>
<path d="M0 0 C1.65 0.33 3.3 0.66 5 1 C5 2.32 5 3.64 5 5 C6.43344 5.53190541 7.87195367 6.05015258 9.3125 6.5625 C10.51326172 6.99755859 10.51326172 6.99755859 11.73828125 7.44140625 C14.1433174 8.24915625 14.1433174 8.24915625 17 7 C17 8.98 17 10.96 17 13 C19.31 13 21.62 13 24 13 C24.33 15.97 24.66 18.94 25 22 C25.66 22 26.32 22 27 22 C27 23.65 27 25.3 27 27 C26.01 27 25.02 27 24 27 C23.34 24.69 22.68 22.38 22 20 C20.68 20.33 19.36 20.66 18 21 C18 20.01 18 19.02 18 18 C17.34 17.67 16.68 17.34 16 17 C16 16.34 16 15.68 16 15 C15.01 15 14.02 15 13 15 C13 13.68 13 12.36 13 11 C12.05125 11.350625 11.1025 11.70125 10.125 12.0625 C7 13 7 13 5 12 C4.71125 10.865625 4.4225 9.73125 4.125 8.5625 C3.38697108 4.94113414 3.38697108 4.94113414 0.875 3.5625 C0.25625 3.376875 -0.3625 3.19125 -1 3 C-0.67 2.01 -0.34 1.02 0 0 Z " fill="#141414" transform="translate(69,83)"/>
<path d="M0 0 C2.31 0.66 4.62 1.32 7 2 C7.12375 2.639375 7.2475 3.27875 7.375 3.9375 C7.684375 4.9584375 7.684375 4.9584375 8 6 C8.66 6.33 9.32 6.66 10 7 C9.34 7 8.68 7 8 7 C7.67 8.65 7.34 10.3 7 12 C9.97 12.495 9.97 12.495 13 13 C12.67 14.65 12.34 16.3 12 18 C14.31 18 16.62 18 19 18 C19 18.66 19 19.32 19 20 C20.32 20.33 21.64 20.66 23 21 C23 22.32 23 23.64 23 25 C24.9600281 26.63676257 24.9600281 26.63676257 27 28 C27 28.66 27 29.32 27 30 C25.68 30 24.36 30 23 30 C23 29.34 23 28.68 23 28 C21.35 27.67 19.7 27.34 18 27 C18 25.68 18 24.36 18 23 C17.01 22.67 16.02 22.34 15 22 C15 21.34 15 20.68 15 20 C13.02 19.67 11.04 19.34 9 19 C9 17.35 9 15.7 9 14 C8.38125 13.690625 7.7625 13.38125 7.125 13.0625 C5.75 12.375 4.375 11.6875 3 11 C3 8.66666667 3 6.33333333 3 4 C2.01 3.34 1.02 2.68 0 2 C0 1.34 0 0.68 0 0 Z " fill="#2B2B2B" transform="translate(90,306)"/>
<path d="M0 0 C0.66 0 1.32 0 2 0 C2.33 0.66 2.66 1.32 3 2 C3.66 2 4.32 2 5 2 C5 2.66 5 3.32 5 4 C5.62648437 4.13277344 6.25296875 4.26554687 6.8984375 4.40234375 C8.12433594 4.66724609 8.12433594 4.66724609 9.375 4.9375 C10.18710938 5.11152344 10.99921875 5.28554688 11.8359375 5.46484375 C14 6 14 6 16 7 C16.33 7.99 16.66 8.98 17 10 C19.50447516 11.21869929 19.50447516 11.21869929 22 12 C22 12.66 22 13.32 22 14 C22.99 14.33 23.98 14.66 25 15 C25.33 16.98 25.66 18.96 26 21 C26.66 21 27.32 21 28 21 C28.33 22.65 28.66 24.3 29 26 C28.34 26 27.68 26 27 26 C27 25.34 27 24.68 27 24 C26.34 24 25.68 24 25 24 C24.67 22.68 24.34 21.36 24 20 C23.01 20 22.02 20 21 20 C21 19.01 21 18.02 21 17 C19.68 16.67 18.36 16.34 17 16 C16.67 14.68 16.34 13.36 16 12 C14.35 11.67 12.7 11.34 11 11 C11 10.01 11 9.02 11 8 C10.01 8.33 9.02 8.66 8 9 C5.73828125 8.22265625 5.73828125 8.22265625 3.3125 7.0625 C2.50425781 6.68222656 1.69601563 6.30195313 0.86328125 5.91015625 C-0.05904297 5.45962891 -0.05904297 5.45962891 -1 5 C-0.67 3.35 -0.34 1.7 0 0 Z " fill="#555555" transform="translate(171,282)"/>
<path d="M0 0 C2.475 0.495 2.475 0.495 5 1 C5.33 2.32 5.66 3.64 6 5 C8.97 5.495 8.97 5.495 12 6 C12 6.66 12 7.32 12 8 C13.65 8.33 15.3 8.66 17 9 C17 9.66 17 10.32 17 11 C14.36 10.67 11.72 10.34 9 10 C9.2784375 11.1446875 9.2784375 11.1446875 9.5625 12.3125 C10 15 10 15 9 18 C7.68 17.67 6.36 17.34 5 17 C5 16.01 5 15.02 5 14 C3.35 13.67 1.7 13.34 0 13 C0.66 11.35 1.32 9.7 2 8 C1.34 8 0.68 8 0 8 C0 5.36 0 2.72 0 0 Z " fill="#565656" transform="translate(49,68)"/>
<path d="M0 0 C1.1446875 0.3403125 1.1446875 0.3403125 2.3125 0.6875 C2.6425 2.9975 2.9725 5.3075 3.3125 7.6875 C3.9725 7.6875 4.6325 7.6875 5.3125 7.6875 C5.6425 9.6675 5.9725 11.6475 6.3125 13.6875 C6.9725 13.6875 7.6325 13.6875 8.3125 13.6875 C8.6425 12.3675 8.9725 11.0475 9.3125 9.6875 C11.7875 10.1825 11.7875 10.1825 14.3125 10.6875 C14.9725 13.6575 15.6325 16.6275 16.3125 19.6875 C15.3225 19.6875 14.3325 19.6875 13.3125 19.6875 C13.3125 18.3675 13.3125 17.0475 13.3125 15.6875 C12.6525 16.0175 11.9925 16.3475 11.3125 16.6875 C9.31289988 16.727492 7.31202758 16.73096799 5.3125 16.6875 C4.9825 15.0375 4.6525 13.3875 4.3125 11.6875 C3.6525 11.6875 2.9925 11.6875 2.3125 11.6875 C1.6525 10.6975 0.9925 9.7075 0.3125 8.6875 C-0.533125 8.378125 -1.37875 8.06875 -2.25 7.75 C-4.6875 6.6875 -4.6875 6.6875 -5.6875 4.75 C-5.6875 2.6875 -5.6875 2.6875 -4.5625 0.875 C-2.6875 -0.3125 -2.6875 -0.3125 0 0 Z " fill="#575757" transform="translate(101.6875,108.3125)"/>
<path d="M0 0 C1.65 0 3.3 0 5 0 C5 0.66 5 1.32 5 2 C5.99 2 6.98 2 8 2 C8 2.66 8 3.32 8 4 C8.763125 3.814375 9.52625 3.62875 10.3125 3.4375 C13 3 13 3 16 4 C15.67 3.01 15.34 2.02 15 1 C22.3028169 2.55633803 22.3028169 2.55633803 25.0625 4.3125 C26 6 26 6 25.6875 8.6875 C25.460625 9.450625 25.23375 10.21375 25 11 C23.35 11.33 21.7 11.66 20 12 C20 11.34 20 10.68 20 10 C17.03 9.505 17.03 9.505 14 9 C14 8.34 14 7.68 14 7 C11.69 6.67 9.38 6.34 7 6 C7 5.34 7 4.68 7 4 C6.01 4 5.02 4 4 4 C4 3.34 4 2.68 4 2 C2.68 1.67 1.36 1.34 0 1 C0 0.67 0 0.34 0 0 Z " fill="#484848" transform="translate(122,170)"/>
<path d="M0 0 C0.33 0 0.66 0 1 0 C1 5.94 1 11.88 1 18 C1.99 17.67 2.98 17.34 4 17 C4.33 16.34 4.66 15.68 5 15 C5.66 15 6.32 15 7 15 C7 14.01 7 13.02 7 12 C7.66 12 8.32 12 9 12 C9.33 10.68 9.66 9.36 10 8 C10.99 8.33 11.98 8.66 13 9 C13 9.66 13 10.32 13 11 C12.34 11 11.68 11 11 11 C11 11.99 11 12.98 11 14 C10.34 14 9.68 14 9 14 C8.67 15.32 8.34 16.64 8 18 C7.34 18 6.68 18 6 18 C5.67 18.99 5.34 19.98 5 21 C4.01 21 3.02 21 2 21 C2 22.32 2 23.64 2 25 C1.34 25 0.68 25 0 25 C0 26.32 0 27.64 0 29 C-0.66 29 -1.32 29 -2 29 C-1.67 27.02 -1.34 25.04 -1 23 C-1.99 22.67 -2.98 22.34 -4 22 C-4 20.68 -4 19.36 -4 18 C-3.34 18 -2.68 18 -2 18 C-2 18.99 -2 19.98 -2 21 C-0.7951172 20.01800889 -0.7951172 20.01800889 -0.90234375 18.15820312 C-0.91394531 17.37380859 -0.92554688 16.58941406 -0.9375 15.78125 C-0.94523438 14.93175781 -0.95296875 14.08226562 -0.9609375 13.20703125 C-0.98027344 11.86705078 -0.98027344 11.86705078 -1 10.5 C-1.02540197 8.73964333 -1.04647147 6.97921697 -1.0625 5.21875 C-1.07410156 4.43435547 -1.08570313 3.64996094 -1.09765625 2.84179688 C-1 1 -1 1 0 0 Z " fill="#757575" transform="translate(207,298)"/>
<path d="M0 0 C0.66 0 1.32 0 2 0 C3.515625 1.7578125 3.515625 1.7578125 5.25 4.125 C9.69029647 9.97487098 9.69029647 9.97487098 15 15 C18.05636102 14.67117848 18.05636102 14.67117848 21 14 C24.31621484 15.91603524 25.71870282 17.04791724 26.8125 20.75 C26.874375 21.4925 26.93625 22.235 27 23 C25.02 23.99 25.02 23.99 23 25 C22.195625 23.8553125 22.195625 23.8553125 21.375 22.6875 C18.79794186 19.77135526 16.54185596 18.5294378 13 17 C13 16.34 13 15.68 13 15 C12.38125 14.9175 11.7625 14.835 11.125 14.75 C9 14 9 14 7.875 12 C7.58625 11.34 7.2975 10.68 7 10 C6.34 9.67 5.68 9.34 5 9 C5 8.34 5 7.68 5 7 C4.34 7 3.68 7 3 7 C2.67 5.68 2.34 4.36 2 3 C1.34 3 0.68 3 0 3 C0 2.01 0 1.02 0 0 Z " fill="#0E0E0E" transform="translate(87,114)"/>
<path d="M0 0 C2.475 0.99 2.475 0.99 5 2 C5 2.66 5 3.32 5 4 C5.66 4 6.32 4 7 4 C8.625 5.5 8.625 5.5 10 7 C9.690625 7.5775 9.38125 8.155 9.0625 8.75 C8.07416636 10.84294184 7.4831387 12.74535275 7 15 C0.25 17.125 0.25 17.125 -2 16 C-2 15.01 -2 14.02 -2 13 C-1.34 13 -0.68 13 0 13 C0 12.34 0 11.68 0 11 C0.99 11 1.98 11 3 11 C3 10.34 3 9.68 3 9 C2.01 8.67 1.02 8.34 0 8 C0 5.36 0 2.72 0 0 Z " fill="#111111" transform="translate(76,144)"/>
<path d="M0 0 C0.66 0 1.32 0 2 0 C1.67 1.98 1.34 3.96 1 6 C-0.65 6 -2.3 6 -4 6 C-4 6.99 -4 7.98 -4 9 C-3.34 9 -2.68 9 -2 9 C-1.67 10.98 -1.34 12.96 -1 15 C-0.34 15 0.32 15 1 15 C1.1953125 17.05078125 1.390625 19.1015625 1.5859375 21.15234375 C1.72257812 21.76207031 1.85921875 22.37179687 2 23 C2.66 23.33 3.32 23.66 4 24 C4 24.66 4 25.32 4 26 C4.66 26 5.32 26 6 26 C5.34 27.32 4.68 28.64 4 30 C3.34 29.67 2.68 29.34 2 29 C2.33 28.34 2.66 27.68 3 27 C2.34 27 1.68 27 1 27 C-1.41023796 25.25629698 -1.95137285 24.25649894 -2.51171875 21.30078125 C-2.59873047 19.82158203 -2.59873047 19.82158203 -2.6875 18.3125 C-2.78611328 16.82169922 -2.78611328 16.82169922 -2.88671875 15.30078125 C-2.94279297 14.16189453 -2.94279297 14.16189453 -3 13 C-3.66 13 -4.32 13 -5 13 C-5.33 11.02 -5.66 9.04 -6 7 C-6.66 7 -7.32 7 -8 7 C-8 6.01 -8 5.02 -8 4 C-7.34 4 -6.68 4 -6 4 C-6 3.34 -6 2.68 -6 2 C-3.83125748 2.50603992 -2.00032373 2.99983813 0 4 C0 2.68 0 1.36 0 0 Z " fill="#484848" transform="translate(82,262)"/>
<path d="M0 0 C0.66 0 1.32 0 2 0 C2.433125 1.093125 2.86625 2.18625 3.3125 3.3125 C4.27056053 5.60272088 4.77905553 6.81178804 6.6875 8.4375 C8.65478572 10.77950681 8.15783402 13.06608925 8.0390625 15.9921875 C7.99158898 18.43232638 8.40958992 20.63835966 9 23 C6.35813021 22.63560417 5.13004902 22.11704411 3.125 20.3125 C2 18 2 18 2.8125 14.75 C3.204375 13.8425 3.59625 12.935 4 12 C2.68 12.33 1.36 12.66 0 13 C0.33 11.68 0.66 10.36 1 9 C1.66 9 2.32 9 3 9 C3 8.34 3 7.68 3 7 C1.68 7 0.36 7 -1 7 C-0.67 4.69 -0.34 2.38 0 0 Z " fill="#181818" transform="translate(154,174)"/>
<path d="M0 0 C0.66 0 1.32 0 2 0 C2 10.23 2 20.46 2 31 C2.66 31 3.32 31 4 31 C4 31.99 4 32.98 4 34 C3.34 34 2.68 34 2 34 C1.505 36.475 1.505 36.475 1 39 C0.34 39 -0.32 39 -1 39 C-0.67 36.03 -0.34 33.06 0 30 C-0.66 30 -1.32 30 -2 30 C-2.04241723 27.66705225 -2.04092937 25.33297433 -2 23 C-1.67 22.67 -1.34 22.34 -1 22 C-0.84285346 20.36743242 -0.74914586 18.72864662 -0.68359375 17.08984375 C-0.62075195 15.60581055 -0.62075195 15.60581055 -0.55664062 14.09179688 C-0.49766602 12.53041992 -0.49766602 12.53041992 -0.4375 10.9375 C-0.39431641 9.89271484 -0.35113281 8.84792969 -0.30664062 7.77148438 C-0.20018775 5.18113116 -0.0981724 2.59067814 0 0 Z " fill="#535353" transform="translate(240,280)"/>
<path d="M0 0 C2.15254408 1.57853232 2.89358061 2.92145152 3.875 5.375 C2.885 6.035 1.895 6.695 0.875 7.375 C0.875 8.035 0.875 8.695 0.875 9.375 C1.535 9.375 2.195 9.375 2.875 9.375 C2.875 10.365 2.875 11.355 2.875 12.375 C-0.425 12.045 -3.725 11.715 -7.125 11.375 C-7.125 10.055 -7.125 8.735 -7.125 7.375 C-6.135 7.375 -5.145 7.375 -4.125 7.375 C-4.125 6.055 -4.125 4.735 -4.125 3.375 C-4.785 3.375 -5.445 3.375 -6.125 3.375 C-6.125 2.715 -6.125 2.055 -6.125 1.375 C-2.73486547 -0.8043722 -2.73486547 -0.8043722 0 0 Z " fill="#383838" transform="translate(83.125,180.625)"/>
<path d="M0 0 C0.33 0.66 0.66 1.32 1 2 C3.02463255 2.65213292 3.02463255 2.65213292 5 3 C5 3.66 5 4.32 5 5 C5.70125 5.12375 6.4025 5.2475 7.125 5.375 C10.17902201 6.03891783 13.04306038 6.99338226 16 8 C17.32911682 8.34976758 18.66082739 8.69096017 20 9 C20 9.66 20 10.32 20 11 C21.98 11 23.96 11 26 11 C26 11.66 26 12.32 26 13 C21.15507803 14.51403812 17.7408989 13.36602172 13 12 C13 11.34 13 10.68 13 10 C10.03 9.505 10.03 9.505 7 9 C7 8.34 7 7.68 7 7 C5.68 7.33 4.36 7.66 3 8 C2.67 6.68 2.34 5.36 2 4 C1.34 4 0.68 4 0 4 C0 2.68 0 1.36 0 0 Z " fill="#5B5B5B" transform="translate(152,152)"/>
<path d="M0 0 C0.70125 0.309375 1.4025 0.61875 2.125 0.9375 C5.08936657 2.03302678 7.87698108 2.56422992 11 3 C11 3.66 11 4.32 11 5 C12.65 4.67 14.3 4.34 16 4 C16 4.99 16 5.98 16 7 C17.65 6.67 19.3 6.34 21 6 C21 6.66 21 7.32 21 8 C22.65 8 24.3 8 26 8 C26 8.66 26 9.32 26 10 C27.32 10.33 28.64 10.66 30 11 C29 12 29 12 26.6875 12.125 C24.26110068 12.01214422 22.28262553 11.8152234 20 11 C19.67 10.34 19.34 9.68 19 9 C17.10466658 8.53476937 17.10466658 8.53476937 14.9375 8.375 C13.638125 8.25125 12.33875 8.1275 11 8 C11 7.34 11 6.68 11 6 C9.68 6 8.36 6 7 6 C7 5.34 7 4.68 7 4 C6.21625 3.896875 5.4325 3.79375 4.625 3.6875 C2 3 2 3 0 0 Z " fill="#3A3A3A" transform="translate(119,265)"/>
<path d="M0 0 C0.66 0 1.32 0 2 0 C1.67 1.32 1.34 2.64 1 4 C2.65 4.33 4.3 4.66 6 5 C6 5.33 6 5.66 6 6 C11.445 5.505 11.445 5.505 17 5 C16.67 5.99 16.34 6.98 16 8 C14.68 8 13.36 8 12 8 C12 8.66 12 9.32 12 10 C8.04 10 4.08 10 0 10 C-1.36952673 7.26094655 -1.12621361 5.02912668 -1 2 C-0.67 1.34 -0.34 0.68 0 0 Z " fill="#3F3F3F" transform="translate(169,368)"/>
<path d="M0 0 C2 1 2 1 2 1 Z M1 2 C1.5534764 4.07553648 2 5.84365964 2 8 C1.34 8 0.68 8 0 8 C0 9.32 0 10.64 0 12 C-0.66 12 -1.32 12 -2 12 C-2.33 13.32 -2.66 14.64 -3 16 C-3 13.36 -3 10.72 -3 8 C-4.65 7.67 -6.3 7.34 -8 7 C-8 5.35 -8 3.7 -8 2 C-4.67465243 0.89155081 -2.37817425 1.15545644 1 2 Z " fill="#161616" transform="translate(90,290)"/>
<path d="M0 0 C1.65 0 3.3 0 5 0 C6.125 3.75 6.125 3.75 5 6 C5.556875 6.061875 6.11375 6.12375 6.6875 6.1875 C10.00086472 7.35165517 11.70475296 9.39458444 14 12 C14.33 12.99 14.66 13.98 15 15 C15.99 15.33 16.98 15.66 18 16 C18 16.66 18 17.32 18 18 C15.0625 17.1875 15.0625 17.1875 12 16 C11.67 15.01 11.34 14.02 11 13 C10.34 13 9.68 13 9 13 C7.375 11.625 7.375 11.625 6 10 C6 9.34 6 8.68 6 8 C5.01 7.67 4.02 7.34 3 7 C1.8125 4.9375 1.8125 4.9375 1 3 C0.01 3.33 -0.98 3.66 -2 4 C-2 3.34 -2 2.68 -2 2 C-1.34 2 -0.68 2 0 2 C0 1.34 0 0.68 0 0 Z " fill="#1D1D1D" transform="translate(123,154)"/>
<path d="M0 0 C2.62561109 -0.08074203 5.24875676 -0.1403623 7.875 -0.1875 C8.99455078 -0.22520508 8.99455078 -0.22520508 10.13671875 -0.26367188 C12.3046875 -0.29296875 12.3046875 -0.29296875 16 0 C18 3 18 3 18 6 C16.68 6 15.36 6 14 6 C14 5.01 14 4.02 14 3 C13.360625 3.165 12.72125 3.33 12.0625 3.5 C8.02413348 4.15932515 4.08192742 4.08003779 0 4 C0 2.68 0 1.36 0 0 Z " fill="#3D3D3D" transform="translate(132,219)"/>
<path d="M0 0 C0.66 0 1.32 0 2 0 C2 0.66 2 1.32 2 2 C3.65 2.33 5.3 2.66 7 3 C7 3.66 7 4.32 7 5 C8.32 5.33 9.64 5.66 11 6 C11.103125 6.639375 11.20625 7.27875 11.3125 7.9375 C11.539375 8.618125 11.76625 9.29875 12 10 C12.99 10.33 13.98 10.66 15 11 C15 11.66 15 12.32 15 13 C16.65 13.66 18.3 14.32 20 15 C19.01 15.33 18.02 15.66 17 16 C16.01 15.34 15.02 14.68 14 14 C14 13.34 14 12.68 14 12 C12.68 11.67 11.36 11.34 10 11 C10 10.34 10 9.68 10 9 C9.236875 8.87625 8.47375 8.7525 7.6875 8.625 C5 8 5 8 2 6 C2 5.34 2 4.68 2 4 C1.01 4 0.02 4 -1 4 C-0.67 2.68 -0.34 1.36 0 0 Z " fill="#222222" transform="translate(169,228)"/>
<path d="M0 0 C0.99 0.33 1.98 0.66 3 1 C3.33 2.65 3.66 4.3 4 6 C4.66 6 5.32 6 6 6 C6 6.66 6 7.32 6 8 C6.66 8.33 7.32 8.66 8 9 C7.67 9.66 7.34 10.32 7 11 C8.98 11.66 10.96 12.32 13 13 C13.33 14.98 13.66 16.96 14 19 C10.98869643 18.38405154 8.70334115 17.86532275 6.7109375 15.4140625 C4.99660203 12.49105885 4 10.41852994 4 7 C3.34 7 2.68 7 2 7 C1.34 4.69 0.68 2.38 0 0 Z " fill="#777777" transform="translate(168,203)"/>
<path d="M0 0 C4 0 4 0 7 1 C7.33 3.31 7.66 5.62 8 8 C8.66 8 9.32 8 10 8 C10.33 9.32 10.66 10.64 11 12 C8.525 11.01 8.525 11.01 6 10 C6 9.34 6 8.68 6 8 C5.01 8.33 4.02 8.66 3 9 C3 8.34 3 7.68 3 7 C2.34 7 1.68 7 1 7 C-0.625 5 -0.625 5 -2 3 C-1.34 2.67 -0.68 2.34 0 2 C0 1.34 0 0.68 0 0 Z " fill="#0E0E0E" transform="translate(179,229)"/>
<path d="M0 0 C1.4540625 0.0309375 1.4540625 0.0309375 2.9375 0.0625 C2.9375 0.7225 2.9375 1.3825 2.9375 2.0625 C4.2575 2.3925 5.5775 2.7225 6.9375 3.0625 C6.9375 4.3825 6.9375 5.7025 6.9375 7.0625 C8.8975281 8.69926257 8.8975281 8.69926257 10.9375 10.0625 C10.9375 10.7225 10.9375 11.3825 10.9375 12.0625 C9.6175 12.0625 8.2975 12.0625 6.9375 12.0625 C6.9375 11.4025 6.9375 10.7425 6.9375 10.0625 C5.2875 9.7325 3.6375 9.4025 1.9375 9.0625 C1.9375 7.7425 1.9375 6.4225 1.9375 5.0625 C0.9475 4.7325 -0.0425 4.4025 -1.0625 4.0625 C-1.0625 3.4025 -1.0625 2.7425 -1.0625 2.0625 C-2.0525 1.7325 -3.0425 1.4025 -4.0625 1.0625 C-3.0625 0.0625 -3.0625 0.0625 0 0 Z " fill="#4D4D4D" transform="translate(106.0625,323.9375)"/>
<path d="M0 0 C2.475 0.495 2.475 0.495 5 1 C5.103125 1.639375 5.20625 2.27875 5.3125 2.9375 C5.539375 3.618125 5.76625 4.29875 6 5 C6.99 5.33 7.98 5.66 9 6 C8.67 7.32 8.34 8.64 8 10 C6.68 10.33 5.36 10.66 4 11 C4 10.34 4 9.68 4 9 C2.68 8.67 1.36 8.34 0 8 C0 5.36 0 2.72 0 0 Z " fill="#353535" transform="translate(49,68)"/>
<path d="M0 0 C1.65 0.33 3.3 0.66 5 1 C5.66 3.97 6.32 6.94 7 10 C6.01 10 5.02 10 4 10 C4 8.68 4 7.36 4 6 C3.01 6.495 3.01 6.495 2 7 C0.00039988 7.039992 -2.00047242 7.04346799 -4 7 C-4.33 5.68 -4.66 4.36 -5 3 C-3.68 3.33 -2.36 3.66 -1 4 C-0.67 2.68 -0.34 1.36 0 0 Z " fill="#303030" transform="translate(111,118)"/>
<path d="M0 0 C0.99 0 1.98 0 3 0 C3 0.99 3 1.98 3 3 C2.34 3 1.68 3 1 3 C0.67 4.32 0.34 5.64 0 7 C-0.66 7 -1.32 7 -2 7 C-2.28875 7.5775 -2.5775 8.155 -2.875 8.75 C-3.91666667 10.83333333 -4.95833333 12.91666667 -6 15 C-7.32 15 -8.64 15 -10 15 C-10 14.01 -10 13.02 -10 12 C-9.34 12 -8.68 12 -8 12 C-8 11.34 -8 10.68 -8 10 C-7.34 10 -6.68 10 -6 10 C-5.34 8.02 -4.68 6.04 -4 4 C-3.01 4 -2.02 4 -1 4 C-0.67 2.68 -0.34 1.36 0 0 Z " fill="#4C4C4C" transform="translate(230,330)"/>
<path d="M0 0 C2.64 0 5.28 0 8 0 C8 0.99 8 1.98 8 3 C9.98 3 11.96 3 14 3 C14 3.66 14 4.32 14 5 C11.36 5 8.72 5 6 5 C6 5.66 6 6.32 6 7 C5.01 7 4.02 7 3 7 C3 6.34 3 5.68 3 5 C2.01 5 1.02 5 0 5 C0 3.35 0 1.7 0 0 Z " fill="#3E3E3E" transform="translate(133,349)"/>
<path d="M0 0 C0.33 0.99 0.66 1.98 1 3 C2.32 3 3.64 3 5 3 C5 3.66 5 4.32 5 5 C3.35 5 1.7 5 0 5 C0 5.66 0 6.32 0 7 C-1.32 7 -2.64 7 -4 7 C-4 6.34 -4 5.68 -4 5 C-5.051875 5.185625 -6.10375 5.37125 -7.1875 5.5625 C-10.57119882 5.95079331 -12.76425888 5.88247485 -16 5 C-16 4.34 -16 3.68 -16 3 C-15.01257813 2.95101563 -14.02515625 2.90203125 -13.0078125 2.8515625 C-11.72648438 2.77679688 -10.44515625 2.70203125 -9.125 2.625 C-7.21074219 2.52058594 -7.21074219 2.52058594 -5.2578125 2.4140625 C-1.91938301 2.32758894 -1.91938301 2.32758894 0 0 Z " fill="#4B4B4B" transform="translate(181,349)"/>
<path d="M0 0 C2.475 0.495 2.475 0.495 5 1 C5 1.66 5 2.32 5 3 C5.99 3.33 6.98 3.66 8 4 C8.33 5.98 8.66 7.96 9 10 C9.66 10 10.32 10 11 10 C11.33 11.65 11.66 13.3 12 15 C11.34 15 10.68 15 10 15 C10 14.34 10 13.68 10 13 C9.34 13 8.68 13 8 13 C7.67 11.68 7.34 10.36 7 9 C6.01 9 5.02 9 4 9 C4 8.01 4 7.02 4 6 C2.68 5.67 1.36 5.34 0 5 C0.99 4.67 1.98 4.34 3 4 C3 3.34 3 2.68 3 2 C2.01 1.67 1.02 1.34 0 1 C0 0.67 0 0.34 0 0 Z " fill="#292929" transform="translate(188,293)"/>
<path d="M0 0 C0.33 0 0.66 0 1 0 C1.02909763 3.24998112 1.04683161 6.49992857 1.0625 9.75 C1.07087891 10.67039063 1.07925781 11.59078125 1.08789062 12.5390625 C1.09111328 13.42851562 1.09433594 14.31796875 1.09765625 15.234375 C1.10289307 16.05131836 1.10812988 16.86826172 1.11352539 17.70996094 C1.00299021 19.93968135 0.62055567 21.86133755 0 24 C-1.32 24.33 -2.64 24.66 -4 25 C-4 23.35 -4 21.7 -4 20 C-3.01 20 -2.02 20 -1 20 C-1.01160156 18.80761719 -1.02320313 17.61523438 -1.03515625 16.38671875 C-1.04453592 14.82031406 -1.05363593 13.25390769 -1.0625 11.6875 C-1.07506836 10.50897461 -1.07506836 10.50897461 -1.08789062 9.30664062 C-1.09111328 8.54931641 -1.09433594 7.79199219 -1.09765625 7.01171875 C-1.10289307 6.31522217 -1.10812988 5.61872559 -1.11352539 4.90112305 C-1 3 -1 3 0 0 Z " fill="#8F8F8F" transform="translate(196,222)"/>
<path d="M0 0 C0.99 0.33 1.98 0.66 3 1 C3 1.99 3 2.98 3 4 C3.66 4 4.32 4 5 4 C5 4.66 5 5.32 5 6 C5.99 6.33 6.98 6.66 8 7 C11 11.33333333 11 11.33333333 11 14 C11.99 14.33 12.98 14.66 14 15 C14 15.66 14 16.32 14 17 C10.86493389 16.66410006 9.974751 15.97334828 7.75 13.625 C6 11 6 11 6 8 C4.35 7.67 2.7 7.34 1 7 C0.67 4.69 0.34 2.38 0 0 Z " fill="#4B4B4B" transform="translate(192,185)"/>
<path d="M0 0 C2.64 0 5.28 0 8 0 C8.33 2.31 8.66 4.62 9 7 C9.66 7 10.32 7 11 7 C11 8.65 11 10.3 11 12 C10.01 12 9.02 12 8 12 C7.34 9.69 6.68 7.38 6 5 C4.68 5.33 3.36 5.66 2 6 C2 5.01 2 4.02 2 3 C1.34 2.67 0.68 2.34 0 2 C0 1.34 0 0.68 0 0 Z " fill="#191919" transform="translate(85,98)"/>
<path d="M0 0 C0.99 0.495 0.99 0.495 2 1 C2 2.98 2 4.96 2 7 C2.66 6.67 3.32 6.34 4 6 C3.67 4.35 3.34 2.7 3 1 C3.99 1 4.98 1 6 1 C7.30765478 4.92296433 7.1971417 7.86002433 7 12 C6.34 12.66 5.68 13.32 5 14 C5 12.35 5 10.7 5 9 C3.35 8.67 1.7 8.34 0 8 C0 5.36 0 2.72 0 0 Z " fill="#7C7C7C" transform="translate(200,267)"/>
<path d="M0 0 C0.66 0 1.32 0 2 0 C2 0.66 2 1.32 2 2 C3.47831221 2.19412181 4.95769316 2.38012131 6.4375 2.5625 C7.26121094 2.66691406 8.08492187 2.77132813 8.93359375 2.87890625 C9.61550781 2.91886719 10.29742187 2.95882813 11 3 C11.33 2.67 11.66 2.34 12 2 C12.99 2.66 13.98 3.32 15 4 C15.1875 6.625 15.1875 6.625 15 9 C13.68 9 12.36 9 11 9 C11 8.34 11 7.68 11 7 C10.34 7 9.68 7 9 7 C9 6.01 9 5.02 9 4 C6.03 4 3.06 4 0 4 C0 2.68 0 1.36 0 0 Z " fill="#2D2D2D" transform="translate(110,336)"/>
<path d="M0 0 C1.65 0.33 3.3 0.66 5 1 C5 2.32 5 3.64 5 5 C3.68 5 2.36 5 1 5 C0.67 6.98 0.34 8.96 0 11 C-0.66 11 -1.32 11 -2 11 C-2.33 11.66 -2.66 12.32 -3 13 C-3.6875 10.8125 -3.6875 10.8125 -4 8 C-2.625 5.375 -2.625 5.375 -1 3 C-0.67 2.01 -0.34 1.02 0 0 Z " fill="#2C2C2C" transform="translate(216,299)"/>
<path d="M0 0 C2 1 2 1 2.78125 2.92578125 C3.0184375 3.71339844 3.255625 4.50101563 3.5 5.3125 C4.2257701 7.69886365 4.91495204 9.84114257 6.09375 12.04296875 C7 14 7 14 7 18 C6.01 18 5.02 18 4 18 C3.49242138 16.58603098 2.99425075 15.16868271 2.5 13.75 C2.2215625 12.96109375 1.943125 12.1721875 1.65625 11.359375 C1 9 1 9 1 5 C0.34 5 -0.32 5 -1 5 C-0.67 3.35 -0.34 1.7 0 0 Z " fill="#4B4B4B" transform="translate(231,250)"/>
<path d="M0 0 C0.66 0 1.32 0 2 0 C2.33 1.65 2.66 3.3 3 5 C2.01 5 1.02 5 0 5 C0.33 7.31 0.66 9.62 1 12 C-0.65 12.66 -2.3 13.32 -4 14 C-4 13.01 -4 12.02 -4 11 C-3.34 11 -2.68 11 -2 11 C-1.67 10.34 -1.34 9.68 -1 9 C-1.66 9 -2.32 9 -3 9 C-3.33 7.02 -3.66 5.04 -4 3 C-2.68 2.67 -1.36 2.34 0 2 C0 1.34 0 0.68 0 0 Z " fill="#6C6C6C" transform="translate(80,211)"/>
<path d="M0 0 C0.66 0 1.32 0 2 0 C5.42857143 7.28571429 5.42857143 7.28571429 5 12 C3.35 12.33 1.7 12.66 0 13 C0.33 11.68 0.66 10.36 1 9 C1.66 9 2.32 9 3 9 C3 8.34 3 7.68 3 7 C1.68 7 0.36 7 -1 7 C-0.67 4.69 -0.34 2.38 0 0 Z " fill="#4F4F4F" transform="translate(154,174)"/>
<path d="M0 0 C0.66 0 1.32 0 2 0 C3.4453125 1.6875 3.4453125 1.6875 5.125 4 C8.70847358 8.76036175 12.69315953 12.89451831 17 17 C16.67 17.66 16.34 18.32 16 19 C15.01 18.34 14.02 17.68 13 17 C13 16.34 13 15.68 13 15 C12.38125 14.9175 11.7625 14.835 11.125 14.75 C9 14 9 14 7.875 12 C7.58625 11.34 7.2975 10.68 7 10 C6.34 9.67 5.68 9.34 5 9 C5 8.34 5 7.68 5 7 C4.34 7 3.68 7 3 7 C2.67 5.68 2.34 4.36 2 3 C1.34 3 0.68 3 0 3 C0 2.01 0 1.02 0 0 Z " fill="#5E5E5E" transform="translate(87,114)"/>
<path d="M0 0 C0.66 0 1.32 0 2 0 C1.34 2.31 0.68 4.62 0 7 C-1.98 7.33 -3.96 7.66 -6 8 C-6.33 8.99 -6.66 9.98 -7 11 C-9.31 11 -11.62 11 -14 11 C-14 10.34 -14 9.68 -14 9 C-12.35 9 -10.7 9 -9 9 C-9 8.34 -9 7.68 -9 7 C-7.35 6.67 -5.7 6.34 -4 6 C-3.67 5.01 -3.34 4.02 -3 3 C-2.34 3 -1.68 3 -1 3 C-0.67 2.01 -0.34 1.02 0 0 Z " fill="#525252" transform="translate(186,358)"/>
<path d="M0 0 C1.98 0.66 3.96 1.32 6 2 C6.103125 2.763125 6.20625 3.52625 6.3125 4.3125 C6.76434916 7.02987123 6.76434916 7.02987123 8.5625 8.5625 C9.036875 9.036875 9.51125 9.51125 10 10 C10 11.32 10 12.64 10 14 C8.68 13.67 7.36 13.34 6 13 C5.34 10.36 4.68 7.72 4 5 C3.34 5 2.68 5 2 5 C2 4.01 2 3.02 2 2 C1.34 2 0.68 2 0 2 C0 1.34 0 0.68 0 0 Z " fill="#757575" transform="translate(181,224)"/>
<path d="M0 0 C2.72175345 4.08263018 2.33122978 7.27142241 2.3125 12.0625 C2.32861328 12.89072266 2.34472656 13.71894531 2.36132812 14.57226562 C2.36229492 15.76045898 2.36229492 15.76045898 2.36328125 16.97265625 C2.36626221 17.69718994 2.36924316 18.42172363 2.37231445 19.16821289 C2 21 2 21 -1 23 C-0.67 15.41 -0.34 7.82 0 0 Z " fill="#7E7E7E" transform="translate(220,275)"/>
<path d="M0 0 C1.32 0 2.64 0 4 0 C5.25664978 2.90600261 6 4.79604584 6 8 C3.69 8 1.38 8 -1 8 C-0.67 5.36 -0.34 2.72 0 0 Z " fill="#595959" transform="translate(77,162)"/>
<path d="M0 0 C1.32 0 2.64 0 4 0 C4 0.66 4 1.32 4 2 C5.32 2 6.64 2 8 2 C8 2.66 8 3.32 8 4 C8.99 4 9.98 4 11 4 C11.33 5.32 11.66 6.64 12 8 C11.34 8 10.68 8 10 8 C10 7.34 10 6.68 10 6 C9.2575 6.020625 8.515 6.04125 7.75 6.0625 C5.29537721 6.00671312 3.33890739 5.6930096 1 5 C0.67 3.35 0.34 1.7 0 0 Z " fill="#646464" transform="translate(157,277)"/>
<path d="M0 0 C0.99 0.33 1.98 0.66 3 1 C3 1.66 3 2.32 3 3 C2.34 3 1.68 3 1 3 C1 3.99 1 4.98 1 6 C0.34 6 -0.32 6 -1 6 C-1.33 7.32 -1.66 8.64 -2 10 C-2.66 10 -3.32 10 -4 10 C-4.33 10.99 -4.66 11.98 -5 13 C-5.33 12.34 -5.66 11.68 -6 11 C-6.66 10.67 -7.32 10.34 -8 10 C-6.625 8.5 -6.625 8.5 -5 7 C-4.34 7 -3.68 7 -3 7 C-3 6.01 -3 5.02 -3 4 C-2.34 4 -1.68 4 -1 4 C-0.67 2.68 -0.34 1.36 0 0 Z " fill="#525252" transform="translate(217,306)"/>
<path d="M0 0 C0.99 0.33 1.98 0.66 3 1 C4.14958375 3.95407189 4.11680723 6.8436144 4.09765625 9.984375 C4.09282227 11.38623047 4.09282227 11.38623047 4.08789062 12.81640625 C4.07951172 13.78449219 4.07113281 14.75257813 4.0625 15.75 C4.05798828 16.73355469 4.05347656 17.71710938 4.04882812 18.73046875 C4.03706483 21.15370791 4.02062684 23.57682273 4 26 C3.01 26 2.02 26 1 26 C1.33 25.34 1.66 24.68 2 24 C2.07194869 21.11629667 2.09291708 18.25760336 2.0625 15.375 C2.05798828 14.57320313 2.05347656 13.77140625 2.04882812 12.9453125 C2.03703168 10.96350994 2.01909605 8.98174567 2 7 C1.34 6.67 0.68 6.34 0 6 C0 4.02 0 2.04 0 0 Z " fill="#363636" transform="translate(219,271)"/>
<path d="M0 0 C0.66 0 1.32 0 2 0 C2.33 2.31 2.66 4.62 3 7 C3.66 7 4.32 7 5 7 C5 7.99 5 8.98 5 10 C4.34 10 3.68 10 3 10 C2.67 11.65 2.34 13.3 2 15 C1.34 15 0.68 15 0 15 C0.185625 13.88625 0.37125 12.7725 0.5625 11.625 C1.31680657 8.17431139 1.31680657 8.17431139 0 6 C-0.039992 4.00039988 -0.04346799 1.99952758 0 0 Z " fill="#6C6C6C" transform="translate(239,304)"/>
<path d="M0 0 C0.66 0 1.32 0 2 0 C2 1.32 2 2.64 2 4 C0.68 4 -0.64 4 -2 4 C-1.505 5.1446875 -1.505 5.1446875 -1 6.3125 C0 9 0 9 0 12 C-0.66 12 -1.32 12 -2 12 C-2.33 10.02 -2.66 8.04 -3 6 C-3.66 6 -4.32 6 -5 6 C-5 4.68 -5 3.36 -5 2 C-3.35 2 -1.7 2 0 2 C0 1.34 0 0.68 0 0 Z " fill="#3E3E3E" transform="translate(79,239)"/>
<path d="M0 0 C1.65 0 3.3 0 5 0 C5.33 1.32 5.66 2.64 6 4 C4.02253397 4.73080266 2.01927511 5.39421747 0 6 C-0.66 5.67 -1.32 5.34 -2 5 C-2 4.01 -2 3.02 -2 2 C-1.34 2 -0.68 2 0 2 C0 1.34 0 0.68 0 0 Z " fill="#555555" transform="translate(76,155)"/>
<path d="M0 0 C2.475 0.99 2.475 0.99 5 2 C5 2.66 5 3.32 5 4 C5.66 4 6.32 4 7 4 C7 4.66 7 5.32 7 6 C5.68 6.33 4.36 6.66 3 7 C3 7.66 3 8.32 3 9 C2.01 8.67 1.02 8.34 0 8 C0 5.36 0 2.72 0 0 Z " fill="#646464" transform="translate(76,144)"/>
<path d="M0 0 C2.475 0.99 2.475 0.99 5 2 C4.979375 2.763125 4.95875 3.52625 4.9375 4.3125 C4.87057159 7.10185786 4.87057159 7.10185786 6 10 C6.99 10.33 7.98 10.66 9 11 C9 11.66 9 12.32 9 13 C7.35 13 5.7 13 4 13 C3.67 9.7 3.34 6.4 3 3 C2.01 2.67 1.02 2.34 0 2 C0 1.34 0 0.68 0 0 Z " fill="#535353" transform="translate(70,129)"/>
<path d="M0 0 C0.66 0 1.32 0 2 0 C2 3.63 2 7.26 2 11 C1.01 11 0.02 11 -1 11 C-1 9.68 -1 8.36 -1 7 C-1.66 7 -2.32 7 -3 7 C-3 6.34 -3 5.68 -3 5 C-2.34 4.67 -1.68 4.34 -1 4 C-0.34786708 1.97536745 -0.34786708 1.97536745 0 0 Z " fill="#767676" transform="translate(203,303)"/>
<path d="M0 0 C0.66 0 1.32 0 2 0 C1.67 1.98 1.34 3.96 1 6 C0.2575 5.979375 -0.485 5.95875 -1.25 5.9375 C-3.70462279 5.99328688 -5.66109261 6.3069904 -8 7 C-8 6.01 -8 5.02 -8 4 C-7.34 4 -6.68 4 -6 4 C-6 3.34 -6 2.68 -6 2 C-3.83125748 2.50603992 -2.00032373 2.99983813 0 4 C0 2.68 0 1.36 0 0 Z " fill="#6D6D6D" transform="translate(82,262)"/>
<path d="M0 0 C3.3 0.33 6.6 0.66 10 1 C10 1.66 10 2.32 10 3 C10.66 3 11.32 3 12 3 C12 3.66 12 4.32 12 5 C9.39517051 5.94721072 7.69325299 6.30222393 5.109375 5.17578125 C3.37417127 4.17063275 1.68359577 3.0893855 0 2 C0 1.34 0 0.68 0 0 Z " fill="#414141" transform="translate(129,135)"/>
<path d="M0 0 C0.66 0 1.32 0 2 0 C2 0.66 2 1.32 2 2 C3.65 2.33 5.3 2.66 7 3 C7 3.66 7 4.32 7 5 C8.32 5.33 9.64 5.66 11 6 C11 6.66 11 7.32 11 8 C9.35 7.67 7.7 7.34 6 7 C6 6.34 6 5.68 6 5 C3.69 4.67 1.38 4.34 -1 4 C-0.67 2.68 -0.34 1.36 0 0 Z " fill="#686868" transform="translate(169,228)"/>
<path d="M0 0 C0.66 0 1.32 0 2 0 C2 0.66 2 1.32 2 2 C3.65 1.67 5.3 1.34 7 1 C7 1.66 7 2.32 7 3 C7.99 3 8.98 3 10 3 C10 4.32 10 5.64 10 7 C9.34 7 8.68 7 8 7 C7.67 6.34 7.34 5.68 7 5 C6.01 5.33 5.02 5.66 4 6 C3.67 5.34 3.34 4.68 3 4 C2.01 4 1.02 4 0 4 C0 2.68 0 1.36 0 0 Z " fill="#595959" transform="translate(158,223)"/>
<path d="M0 0 C3.3 0.33 6.6 0.66 10 1 C10 1.66 10 2.32 10 3 C9.34 3 8.68 3 8 3 C8 4.32 8 5.64 8 7 C7.34 7 6.68 7 6 7 C5.67 8.32 5.34 9.64 5 11 C5 8.36 5 5.72 5 3 C3.35 2.67 1.7 2.34 0 2 C0 1.34 0 0.68 0 0 Z " fill="#4B4B4B" transform="translate(82,295)"/>
<path d="M0 0 C0.66 0 1.32 0 2 0 C2 1.98 2 3.96 2 6 C4.31 6 6.62 6 9 6 C9 6.66 9 7.32 9 8 C2.375 9.25 2.375 9.25 -1 7 C-0.67 4.69 -0.34 2.38 0 0 Z " fill="#848484" transform="translate(84,90)"/>
<path d="M0 0 C4.22174141 1.50776479 5.88717524 4.15164062 8 8 C8.25 10.875 8.25 10.875 8 13 C7.34 13 6.68 13 6 13 C6 11.35 6 9.7 6 8 C5.34 8 4.68 8 4 8 C3.67 7.01 3.34 6.02 3 5 C2.484375 4.484375 1.96875 3.96875 1.4375 3.4375 C0.963125 2.963125 0.48875 2.48875 0 2 C0 1.34 0 0.68 0 0 Z " fill="#606060" transform="translate(65,114)"/>
<path d="M0 0 C3.78786597 0.5260925 6.17152224 1.38103911 9 4 C9 4.66 9 5.32 9 6 C7.68 6 6.36 6 5 6 C5 5.34 5 4.68 5 4 C3.35 3.67 1.7 3.34 0 3 C0 2.01 0 1.02 0 0 Z " fill="#363636" transform="translate(108,330)"/>
<path d="M0 0 C0.66 0 1.32 0 2 0 C2.33 1.32 2.66 2.64 3 4 C3.66 4 4.32 4 5 4 C5 4.66 5 5.32 5 6 C5.66 6 6.32 6 7 6 C8.625 7.375 8.625 7.375 10 9 C10 9.66 10 10.32 10 11 C8.68 10.67 7.36 10.34 6 10 C6 9.34 6 8.68 6 8 C5.01 7.67 4.02 7.34 3 7 C3 6.34 3 5.68 3 5 C2.34 5 1.68 5 1 5 C0.67 3.35 0.34 1.7 0 0 Z " fill="#595959" transform="translate(206,202)"/>
<path d="M0 0 C1.65 0 3.3 0 5 0 C5.33 1.32 5.66 2.64 6 4 C4.68 4 3.36 4 2 4 C2 4.66 2 5.32 2 6 C0.68 5.67 -0.64 5.34 -2 5 C-2 4.01 -2 3.02 -2 2 C-1.34 2 -0.68 2 0 2 C0 1.34 0 0.68 0 0 Z " fill="#7C7C7C" transform="translate(79,172)"/>
<path d="M0 0 C2.31 0.33 4.62 0.66 7 1 C7.33 2.98 7.66 4.96 8 7 C5.125 6.3125 5.125 6.3125 2 5 C0.625 2.375 0.625 2.375 0 0 Z " fill="#4A4A4A" transform="translate(174,215)"/>
<path d="M0 0 C2.86724686 0.57344937 3.8614515 0.8614515 6 3 C5.34 3 4.68 3 4 3 C4.495 3.598125 4.99 4.19625 5.5 4.8125 C7 7 7 7 7 10 C6.01 10 5.02 10 4 10 C3.67 8.35 3.34 6.7 3 5 C2.34 5 1.68 5 1 5 C0.67 3.35 0.34 1.7 0 0 Z " fill="#212121" transform="translate(171,204)"/>
<path d="M0 0 C0.66 0 1.32 0 2 0 C2 3.63 2 7.26 2 11 C1.34 11 0.68 11 0 11 C0 9.68 0 8.36 0 7 C-0.66 7 -1.32 7 -2 7 C-2 5.35 -2 3.7 -2 2 C-1.34 2 -0.68 2 0 2 C0 1.34 0 0.68 0 0 Z " fill="#4D4D4D" transform="translate(79,198)"/>
<path d="M0 0 C1.65 0 3.3 0 5 0 C5 0.66 5 1.32 5 2 C5.99 2 6.98 2 8 2 C8 2.66 8 3.32 8 4 C9.32 3.67 10.64 3.34 12 3 C11.34 4.32 10.68 5.64 10 7 C9.01 6.67 8.02 6.34 7 6 C7 5.34 7 4.68 7 4 C6.01 4 5.02 4 4 4 C4 3.34 4 2.68 4 2 C2.68 1.67 1.36 1.34 0 1 C0 0.67 0 0.34 0 0 Z " fill="#4C4C4C" transform="translate(122,170)"/>
<path d="M0 0 C1.98 0.495 1.98 0.495 4 1 C5.125 4.75 5.125 4.75 4 7 C2.68 6.67 1.36 6.34 0 6 C-1.125 2.25 -1.125 2.25 0 0 Z " fill="#4C4C4C" transform="translate(163,197)"/>
<path d="M0 0 C2.475 0.495 2.475 0.495 5 1 C5 2.65 5 4.3 5 6 C4.34 6 3.68 6 3 6 C3 6.66 3 7.32 3 8 C2.34 8 1.68 8 1 8 C0 2.25 0 2.25 0 0 Z " fill="#4F4F4F" transform="translate(59,97)"/>
<path d="M0 0 C0.33 0 0.66 0 1 0 C1 4.62 1 9.24 1 14 C0.01 14 -0.98 14 -2 14 C-1.67 12.68 -1.34 11.36 -1 10 C-1.66 10 -2.32 10 -3 10 C-3.33 8.68 -3.66 7.36 -4 6 C-3.34 6 -2.68 6 -2 6 C-2 6.99 -2 7.98 -2 9 C-1.34 9 -0.68 9 0 9 C0 6.03 0 3.06 0 0 Z " fill="#1A1A1A" transform="translate(194,227)"/>
<path d="M0 0 C0.66 0 1.32 0 2 0 C2.0825 0.61875 2.165 1.2375 2.25 1.875 C2.79394438 4.17972859 2.79394438 4.17972859 5 5.0625 C5.66 5.371875 6.32 5.68125 7 6 C7.33 6.99 7.66 7.98 8 9 C4.11980141 7.74155722 2.0588158 6.57583797 0 3 C0 2.01 0 1.02 0 0 Z " fill="#313131" transform="translate(217,215)"/>
<path d="M0 0 C0 0.66 0 1.32 0 2 C1.98 2 3.96 2 6 2 C6 2.66 6 3.32 6 4 C1.15507803 5.51403812 -2.2591011 4.36602172 -7 3 C-2.5 0 -2.5 0 0 0 Z " fill="#3B3B3B" transform="translate(172,161)"/>
<path d="M0 0 C0.33 2.31 0.66 4.62 1 7 C-1.4375 6.25 -1.4375 6.25 -4 5 C-4.8125 2.875 -4.8125 2.875 -5 1 C-3 0 -3 0 0 0 Z " fill="#444444" transform="translate(101,110)"/>
<path d="M0 0 C0.66 0 1.32 0 2 0 C1.67 2.31 1.34 4.62 1 7 C1.99 7.33 2.98 7.66 4 8 C4 8.66 4 9.32 4 10 C2.68 10 1.36 10 0 10 C-1.36952673 7.26094655 -1.12621361 5.02912668 -1 2 C-0.67 1.34 -0.34 0.68 0 0 Z " fill="#696969" transform="translate(169,368)"/>
<path d="M0 0 C0.66 0 1.32 0 2 0 C1.67 1.98 1.34 3.96 1 6 C0.34 6 -0.32 6 -1 6 C-1.33 7.65 -1.66 9.3 -2 11 C-2.66 11 -3.32 11 -4 11 C-3.34 8.36 -2.68 5.72 -2 3 C-1.34 3 -0.68 3 0 3 C0 2.01 0 1.02 0 0 Z " fill="#505050" transform="translate(201,351)"/>
<path d="M0 0 C0.99 0.33 1.98 0.66 3 1 C2.67 2.65 2.34 4.3 2 6 C0.35 6 -1.3 6 -3 6 C-3 4.68 -3 3.36 -3 2 C-2.01 2 -1.02 2 0 2 C0 1.34 0 0.68 0 0 Z " fill="#676767" transform="translate(79,186)"/>
<path d="M0 0 C2.9375 0.75 2.9375 0.75 6 2 C6.875 4.125 6.875 4.125 7 6 C5.35 6.66 3.7 7.32 2 8 C2 6.35 2 4.7 2 3 C1.34 2.67 0.68 2.34 0 2 C0 1.34 0 0.68 0 0 Z " fill="#494949" transform="translate(141,172)"/>
<path d="M0 0 C0.66 0 1.32 0 2 0 C2 0.66 2 1.32 2 2 C4.97 2.33 7.94 2.66 11 3 C11 3.66 11 4.32 11 5 C7.37 4.67 3.74 4.34 0 4 C0 2.68 0 1.36 0 0 Z " fill="#4A4A4A" transform="translate(110,336)"/>
<path d="M0 0 C2.5 1.375 2.5 1.375 5 3 C5 3.66 5 4.32 5 5 C5.99 5.33 6.98 5.66 8 6 C8 6.66 8 7.32 8 8 C2.25 6.375 2.25 6.375 0 3 C0 2.01 0 1.02 0 0 Z " fill="#6B6B6B" transform="translate(133,164)"/>
<path d="M0 0 C-0.33 0.66 -0.66 1.32 -1 2 C-4.0625 2.625 -4.0625 2.625 -7 3 C-7 3.66 -7 4.32 -7 5 C-7.99 5 -8.98 5 -10 5 C-10 4.34 -10 3.68 -10 3 C-9.34 3 -8.68 3 -8 3 C-8 2.01 -8 1.02 -8 0 C-5.13822943 -1.43088528 -3.06624227 -0.59991697 0 0 Z " fill="#121212" transform="translate(188,366)"/>
<path d="M0 0 C0.66 0 1.32 0 2 0 C2 0.66 2 1.32 2 2 C2.66 2 3.32 2 4 2 C4.33 4.31 4.66 6.62 5 9 C4.34 9 3.68 9 3 9 C3 8.01 3 7.02 3 6 C2.34 6 1.68 6 1 6 C0.67 4.02 0.34 2.04 0 0 Z " fill="#545454" transform="translate(76,269)"/>
<path d="M0 0 C0.33 0.66 0.66 1.32 1 2 C1.66 2 2.32 2 3 2 C4.125 5.75 4.125 5.75 3 8 C2.01 8 1.02 8 0 8 C0 7.01 0 6.02 0 5 C-0.66 4.67 -1.32 4.34 -2 4 C-1.34 2.68 -0.68 1.36 0 0 Z " fill="#0C0C0C" transform="translate(103,118)"/>
<path d="M0 0 C2.31 0.66 4.62 1.32 7 2 C7.33 3.32 7.66 4.64 8 6 C5.0280615 4.87548273 2.66559313 3.77706209 0 2 C0 1.34 0 0.68 0 0 Z " fill="#474747" transform="translate(90,306)"/>
<path d="M0 0 C0 1.98 0 3.96 0 6 C-0.99 6.33 -1.98 6.66 -3 7 C-3.12375 6.195625 -3.2475 5.39125 -3.375 4.5625 C-3.684375 3.2940625 -3.684375 3.2940625 -4 2 C-4.66 1.67 -5.32 1.34 -6 1 C-3.92446352 0.4465236 -2.15634036 0 0 0 Z " fill="#1B1B1B" transform="translate(203,301)"/>
<path d="M0 0 C0.99 0.33 1.98 0.66 3 1 C3 4.3 3 7.6 3 11 C2.34 11 1.68 11 1 11 C0.67 7.37 0.34 3.74 0 0 Z " fill="#3E3E3E" transform="translate(225,224)"/>
<path d="M0 0 C1.32 0.33 2.64 0.66 4 1 C4.33 2.65 4.66 4.3 5 6 C5.66 6 6.32 6 7 6 C7 6.66 7 7.32 7 8 C5.68 7.67 4.36 7.34 3 7 C3 6.01 3 5.02 3 4 C2.34 4 1.68 4 1 4 C0.67 2.68 0.34 1.36 0 0 Z " fill="#3D3D3D" transform="translate(142,143)"/>
<path d="M0 0 C0.66 0 1.32 0 2 0 C2 1.32 2 2.64 2 4 C2.66 4 3.32 4 4 4 C4 5.65 4 7.3 4 9 C3.01 9 2.02 9 1 9 C0.67 6.03 0.34 3.06 0 0 Z " fill="#515151" transform="translate(92,101)"/>
<path d="M0 0 C0.99 0.33 1.98 0.66 3 1 C3 1.99 3 2.98 3 4 C3.66 4 4.32 4 5 4 C4.67 5.32 4.34 6.64 4 8 C3.01 7.67 2.02 7.34 1 7 C0.67 4.69 0.34 2.38 0 0 Z " fill="#3C3C3C" transform="translate(192,185)"/>
<path d="M0 0 C0.33 0.66 0.66 1.32 1 2 C3.02463255 2.65213292 3.02463255 2.65213292 5 3 C5.33 4.32 5.66 5.64 6 7 C5.01 7.33 4.02 7.66 3 8 C2.67 6.68 2.34 5.36 2 4 C1.34 4 0.68 4 0 4 C0 2.68 0 1.36 0 0 Z " fill="#313131" transform="translate(152,152)"/>
<path d="M0 0 C2.475 0.99 2.475 0.99 5 2 C5 2.66 5 3.32 5 4 C5.66 4 6.32 4 7 4 C7.33 5.32 7.66 6.64 8 8 C7.34 8 6.68 8 6 8 C6 7.34 6 6.68 6 6 C5.01 5.67 4.02 5.34 3 5 C3 4.34 3 3.68 3 3 C2.01 2.67 1.02 2.34 0 2 C0 1.34 0 0.68 0 0 Z " fill="#505050" transform="translate(116,146)"/>
<path d="M0 0 C0.33 0 0.66 0 1 0 C0.67 2.31 0.34 4.62 0 7 C-1.32 7 -2.64 7 -4 7 C-4 6.01 -4 5.02 -4 4 C-3.34 4 -2.68 4 -2 4 C-2 3.34 -2 2.68 -2 2 C-1.34 2 -0.68 2 0 2 C0 1.34 0 0.68 0 0 Z " fill="#303030" transform="translate(224,338)"/>
<path d="M0 0 C0.33 0.66 0.66 1.32 1 2 C1.66 2 2.32 2 3 2 C3 6.29 3 10.58 3 15 C2.67 15 2.34 15 2 15 C2 11.7 2 8.4 2 5 C1.34 5 0.68 5 0 5 C0 3.35 0 1.7 0 0 Z " fill="#2C2C2C" transform="translate(206,279)"/>
<path d="M0 0 C0.33 0 0.66 0 1 0 C1 2.31 1 4.62 1 7 C1.66 7 2.32 7 3 7 C2.67 8.65 2.34 10.3 2 12 C1.34 12 0.68 12 0 12 C0 8.04 0 4.08 0 0 Z " fill="#2D2D2D" transform="translate(199,268)"/>
<path d="M0 0 C1.485 0.99 1.485 0.99 3 2 C2.6875 3.9375 2.6875 3.9375 2 6 C1.01 6.33 0.02 6.66 -1 7 C-1.04254356 5.00045254 -1.04080783 2.99958364 -1 1 C-0.67 0.67 -0.34 0.34 0 0 Z " fill="#2B2B2B" transform="translate(127,138)"/>
<path d="M0 0 C1.98 0.66 3.96 1.32 6 2 C6 2.99 6 3.98 6 5 C4.35 5 2.7 5 1 5 C0.67 3.35 0.34 1.7 0 0 Z " fill="#555555" transform="translate(74,88)"/>
<path d="M0 0 C4.16138263 -0.08159574 7.9472484 0.01751476 12 1 C12 1.33 12 1.66 12 2 C7.6835078 2.76173392 4.25566547 3.16063604 0 2 C0 1.34 0 0.68 0 0 Z " fill="#7F7F7F" transform="translate(165,352)"/>
<path d="M0 0 C0.99 0.33 1.98 0.66 3 1 C3 1.66 3 2.32 3 3 C3.66 3 4.32 3 5 3 C5.33 4.65 5.66 6.3 6 8 C5.34 8 4.68 8 4 8 C4 7.34 4 6.68 4 6 C3.34 6 2.68 6 2 6 C1.34 4.02 0.68 2.04 0 0 Z " fill="#4E4E4E" transform="translate(194,300)"/>
<path d="M0 0 C0.99 0.33 1.98 0.66 3 1 C3.33 3.64 3.66 6.28 4 9 C2 7.875 2 7.875 0 6 C-0.25 2.8125 -0.25 2.8125 0 0 Z " fill="#212121" transform="translate(219,271)"/>
<path d="M0 0 C0.33 0.99 0.66 1.98 1 3 C1.66 3 2.32 3 3 3 C3.33 4.32 3.66 5.64 4 7 C1.525 6.01 1.525 6.01 -1 5 C-1 4.34 -1 3.68 -1 3 C-1.99 3.33 -2.98 3.66 -4 4 C-4 3.34 -4 2.68 -4 2 C-2.68 2 -1.36 2 0 2 C0 1.34 0 0.68 0 0 Z " fill="#151515" transform="translate(186,234)"/>
<path d="M0 0 C1.65 0.33 3.3 0.66 5 1 C5 1.66 5 2.32 5 3 C3.68 2.67 2.36 2.34 1 2 C0.67 3.32 0.34 4.64 0 6 C-0.66 6 -1.32 6 -2 6 C-1.34 4.02 -0.68 2.04 0 0 Z " fill="#727272" transform="translate(111,118)"/>
<path d="M0 0 C0.66 0 1.32 0 2 0 C3.2890625 1.75 3.2890625 1.75 4.625 4 C5.07101563 4.7425 5.51703125 5.485 5.9765625 6.25 C6.31429687 6.8275 6.65203125 7.405 7 8 C6.01 8.495 6.01 8.495 5 9 C5 8.34 5 7.68 5 7 C4.34 7 3.68 7 3 7 C2.67 5.68 2.34 4.36 2 3 C1.34 3 0.68 3 0 3 C0 2.01 0 1.02 0 0 Z " fill="#373737" transform="translate(87,114)"/>
<path d="M0 0 C0 0.66 0 1.32 0 2 C0.99 2.33 1.98 2.66 3 3 C3 3.33 3 3.66 3 4 C0.36 3.67 -2.28 3.34 -5 3 C-5 2.34 -5 1.68 -5 1 C-2 0 -2 0 0 0 Z " fill="#666666" transform="translate(154,276)"/>
<path d="M0 0 C1.32 0 2.64 0 4 0 C4 0.66 4 1.32 4 2 C5.32 2.33 6.64 2.66 8 3 C7 4 7 4 4.4375 4.0625 C3.2309375 4.0315625 3.2309375 4.0315625 2 4 C2 3.34 2 2.68 2 2 C1.34 2 0.68 2 0 2 C0 1.34 0 0.68 0 0 Z " fill="#6E6E6E" transform="translate(141,273)"/>
<path d="M0 0 C3.3 0.99 6.6 1.98 10 3 C10 3.99 10 4.98 10 6 C9.01 6 8.02 6 7 6 C7 5.34 7 4.68 7 4 C6.21625 3.896875 5.4325 3.79375 4.625 3.6875 C2 3 2 3 0 0 Z " fill="#585858" transform="translate(119,265)"/>
<path d="M0 0 C2.9375 0.8125 2.9375 0.8125 6 2 C6.33 2.99 6.66 3.98 7 5 C5.35 5 3.7 5 2 5 C2 4.01 2 3.02 2 2 C1.34 2 0.68 2 0 2 C0 1.34 0 0.68 0 0 Z " fill="#525252" transform="translate(181,224)"/>
<path d="M0 0 C1.32 0.99 2.64 1.98 4 3 C3.67 3.99 3.34 4.98 3 6 C1.68 5.67 0.36 5.34 -1 5 C-0.67 3.35 -0.34 1.7 0 0 Z " fill="#181818" transform="translate(101,131)"/>
<path d="M0 0 C0.66 0 1.32 0 2 0 C3.25 6.625 3.25 6.625 1 10 C0.34 9.67 -0.32 9.34 -1 9 C-1 8.01 -1 7.02 -1 6 C-0.34 6 0.32 6 1 6 C0.67 4.02 0.34 2.04 0 0 Z " fill="#171717" transform="translate(72,121)"/>
<path d="M0 0 C1.65 0.33 3.3 0.66 5 1 C4.67 2.32 4.34 3.64 4 5 C2.35 4.67 0.7 4.34 -1 4 C-0.67 2.68 -0.34 1.36 0 0 Z " fill="#1A1A1A" transform="translate(171,368)"/>
<path d="M0 0 C0.33 0.66 0.66 1.32 1 2 C1.99 2 2.98 2 4 2 C3.67 2.99 3.34 3.98 3 5 C2.34 5 1.68 5 1 5 C1 5.66 1 6.32 1 7 C0.34 7 -0.32 7 -1 7 C-1.04254356 5.00045254 -1.04080783 2.99958364 -1 1 C-0.67 0.67 -0.34 0.34 0 0 Z " fill="#494949" transform="translate(188,366)"/>
<path d="M0 0 C1.32 0 2.64 0 4 0 C4 0.66 4 1.32 4 2 C3.34 2 2.68 2 2 2 C1.67 3.65 1.34 5.3 1 7 C0.34 7 -0.32 7 -1 7 C-0.67 4.69 -0.34 2.38 0 0 Z " fill="#848484" transform="translate(189,351)"/>
<path d="M0 0 C0.99 0.33 1.98 0.66 3 1 C1.25 5.875 1.25 5.875 -1 7 C-1.04254356 5.00045254 -1.04080783 2.99958364 -1 1 C-0.67 0.67 -0.34 0.34 0 0 Z " fill="#444444" transform="translate(226,334)"/>
<path d="M0 0 C0.99 0 1.98 0 3 0 C3 1.98 3 3.96 3 6 C1.68 6 0.36 6 -1 6 C-0.67 4.02 -0.34 2.04 0 0 Z " fill="#232323" transform="translate(100,319)"/>
<path d="M0 0 C2 1 2 1 2 1 Z M-3 1 C-1.68 1.33 -0.36 1.66 1 2 C1 2.99 1 3.98 1 5 C-0.32 5 -1.64 5 -3 5 C-3 3.68 -3 2.36 -3 1 Z " fill="#212121" transform="translate(90,290)"/>
<path d="M0 0 C0.66 0 1.32 0 2 0 C2 0.99 2 1.98 2 3 C2.66 3 3.32 3 4 3 C4 4.32 4 5.64 4 7 C3.01 7 2.02 7 1 7 C0.67 4.69 0.34 2.38 0 0 Z " fill="#494949" transform="translate(79,252)"/>
<path d="M0 0 C0.66 0.33 1.32 0.66 2 1 C2.40729228 3.32156597 2.74438677 5.6568787 3 8 C2.34 8 1.68 8 1 8 C1 7.01 1 6.02 1 5 C0.34 5 -0.32 5 -1 5 C-0.67 3.35 -0.34 1.7 0 0 Z " fill="#676767" transform="translate(231,250)"/>
<path d="M0 0 C1.32 0 2.64 0 4 0 C4 1.32 4 2.64 4 4 C2.68 4.33 1.36 4.66 0 5 C0 3.35 0 1.7 0 0 Z " fill="#A1A1A1" transform="translate(192,242)"/>
<path d="M0 0 C0.66 0 1.32 0 2 0 C2.12375 0.639375 2.2475 1.27875 2.375 1.9375 C2.684375 2.9584375 2.684375 2.9584375 3 4 C3.66 4.33 4.32 4.66 5 5 C5 5.66 5 6.32 5 7 C2.11424181 6.60196439 1.17810487 6.20990931 -0.75 3.9375 C-1.1625 3.298125 -1.575 2.65875 -2 2 C-1.34 1.34 -0.68 0.68 0 0 Z " fill="#868686" transform="translate(158,190)"/>
<path d="M0 0 C1.98 0.495 1.98 0.495 4 1 C3.34 2.98 2.68 4.96 2 7 C1.67 6.34 1.34 5.68 1 5 C0.34 4.67 -0.32 4.34 -1 4 C-0.67 2.68 -0.34 1.36 0 0 Z " fill="#191919" transform="translate(139,140)"/>
<path d="M0 0 C0.66 0 1.32 0 2 0 C2 0.99 2 1.98 2 3 C2.66 3 3.32 3 4 3 C4 4.32 4 5.64 4 7 C3.01 7 2.02 7 1 7 C0.67 4.69 0.34 2.38 0 0 Z " fill="#5A5A5A" transform="translate(117,129)"/>
<path d="M0 0 C1.65 0.33 3.3 0.66 5 1 C5 1.99 5 2.98 5 4 C2.03 3.505 2.03 3.505 -1 3 C-0.67 2.01 -0.34 1.02 0 0 Z " fill="#5C5C5C" transform="translate(69,83)"/>
<path d="M0 0 C0.99 0 1.98 0 3 0 C3 0.99 3 1.98 3 3 C3.66 3 4.32 3 5 3 C5 3.66 5 4.32 5 5 C4.01 5 3.02 5 2 5 C2 4.34 2 3.68 2 3 C1.01 3 0.02 3 -1 3 C-0.67 2.01 -0.34 1.02 0 0 Z " fill="#9D9D9D" transform="translate(134,351)"/>
<path d="M0 0 C0.66 0 1.32 0 2 0 C2 0.66 2 1.32 2 2 C2.66 2 3.32 2 4 2 C3.67 3.32 3.34 4.64 3 6 C2.01 5.67 1.02 5.34 0 5 C0 3.35 0 1.7 0 0 Z " fill="#6B6B6B" transform="translate(198,332)"/>
<path d="M0 0 C0.33 0 0.66 0 1 0 C1.1875 2.375 1.1875 2.375 1 5 C0.01 5.66 -0.98 6.32 -2 7 C-2.99 6.67 -3.98 6.34 -5 6 C-4.34 6 -3.68 6 -3 6 C-3.33 5.01 -3.66 4.02 -4 3 C-2.68 3 -1.36 3 0 3 C0 2.01 0 1.02 0 0 Z " fill="#1C1C1C" transform="translate(86,210)"/>
<path d="M0 0 C0.99 0.495 0.99 0.495 2 1 C2 1.66 2 2.32 2 3 C2.66 3 3.32 3 4 3 C4 3.99 4 4.98 4 6 C2.68 6 1.36 6 0 6 C0 4.02 0 2.04 0 0 Z " fill="#282828" transform="translate(82,187)"/>
<path d="M0 0 C1.32 0.33 2.64 0.66 4 1 C4.33 2.98 4.66 4.96 5 7 C3.29115995 5.37660195 1.62553283 3.70680947 0 2 C0 1.34 0 0.68 0 0 Z " fill="#3A3A3A" transform="translate(128,160)"/>
<path d="M0 0 C0.66 0 1.32 0 2 0 C3 5.75 3 5.75 3 8 C2.01 7.67 1.02 7.34 0 7 C0 4.69 0 2.38 0 0 Z " fill="#6B6B6B" transform="translate(62,106)"/>
<path d="M0 0 C0.66 0 1.32 0 2 0 C2 0.66 2 1.32 2 2 C1.34 2 0.68 2 0 2 C0 1.34 0 0.68 0 0 Z " fill="#DFDFDF" transform="translate(76,179)"/>
</svg>
